<?xml version="1.0" encoding="UTF-8"?>
<svg id="secure-login" xmlns="http://www.w3.org/2000/svg" version="1.1" viewBox="0 0 2500 2500">
  <!-- Generator: Adobe Illustrator 29.5.1, SVG Export Plug-In . SVG Version: 2.1.0 Build 141)  -->
  <defs>
    <style>
      .st0 {
        fill: #bec4cd;
      }

      .st1 {
        fill: #f0f2f5;
      }

      .st2 {
        fill: #a855f7;
      }

      .st3 {
        fill: #373b42;
      }

      .st4 {
        fill: #fff;
      }

      .st5 {
        fill: none;
      }

      .st6 {
        fill: #dbdee4;
      }

      .st7 {
        opacity: .1;
      }
    </style>
  </defs>
  <path class="st6" d="M626.87,2148.31c-.67,0-1.32-.35-1.68-.97-.54-.93-.23-2.12.7-2.67l507.79-295.18c.93-.54,2.12-.23,2.67.71.54.93.23,2.12-.7,2.67l-507.79,295.18c-.32.17-.66.26-.99.26Z"/>
  <path class="st6" d="M2133.52,1423.71c-.34,0-.67-.08-.97-.26l-240.65-138.97c-4.66-2.69-7.45-7.51-7.45-12.89s2.77-10.2,7.42-12.91l238.99-138.92c.94-.54,2.12-.23,2.67.71.54.93.23,2.12-.7,2.67l-238.98,138.92c-3.43,1.99-5.48,5.55-5.48,9.53.01,3.97,2.06,7.54,5.51,9.53l240.65,138.97c.93.54,1.25,1.73.72,2.66-.4.61-1.06.96-1.73.96Z"/>
  <g>
    <path class="st4" d="M2099.69,1428.21c-14.1-8.14-14.18-21.34-.17-29.48,14-8.14,36.8-8.14,50.9,0,14.1,8.14,14.16,21.34.16,29.47-14.01,8.14-36.79,8.14-50.89.01Z"/>
    <path class="st6" d="M2125.16,1436.22c-9.56,0-19.14-2.11-26.44-6.33h0c-7.47-4.31-11.59-10.17-11.6-16.48-.01-6.27,4.04-12.09,11.41-16.37,14.54-8.44,38.25-8.44,52.86,0,7.46,4.31,11.58,10.16,11.59,16.47.01,6.27-4.04,12.09-11.42,16.38-7.26,4.22-16.83,6.33-26.4,6.33ZM2100.67,1426.52c13.55,7.8,35.49,7.82,48.93,0,6.13-3.56,9.5-8.18,9.49-13-.01-4.86-3.43-9.51-9.64-13.1-13.54-7.81-35.51-7.82-48.95,0-6.12,3.56-9.49,8.17-9.48,12.99.01,4.86,3.43,9.52,9.65,13.11h0Z"/>
  </g>
  <path class="st2" d="M2124.97,1404.17c5.5,0,10.81,1.25,14.59,3.43,3.03,1.75,4.78,3.9,4.78,5.9s-1.7,4.1-4.68,5.83c-3.75,2.18-9.04,3.43-14.53,3.43s-10.8-1.25-14.58-3.43c-3.04-1.75-4.78-3.91-4.78-5.91s1.7-4.1,4.68-5.83c3.74-2.18,9.03-3.42,14.52-3.42Z"/>
  <path class="st3" d="M2000.87,1333.53c5.9,0,11.61,1.34,15.67,3.69,3.26,1.88,5.13,4.19,5.13,6.34s-1.83,4.41-5.03,6.27c-4.02,2.34-9.71,3.68-15.61,3.68s-11.6-1.34-15.66-3.68c-3.26-1.88-5.13-4.2-5.14-6.35,0-2.12,1.83-4.4,5.03-6.26,4.03-2.35,9.72-3.69,15.61-3.69Z"/>
  <path class="st6" d="M1974.38,2172.07c-3.95,0-7.91-1.02-11.44-3.06l-231.42-133.66c-.93-.54-1.25-1.73-.72-2.66.54-.94,1.75-1.25,2.67-.71l231.42,133.66c5.86,3.38,13.15,3.38,19.02-.03l229.86-133.64c.93-.54,2.12-.23,2.67.71.54.93.23,2.12-.7,2.67l-229.86,133.64c-3.55,2.05-7.52,3.08-11.5,3.08Z"/>
  <g>
    <g>
      <path class="st4" d="M2174.63,2027.71c-14.09,8.14-14.17,21.34-.17,29.48s36.79,8.14,50.88,0c14.09-8.14,14.16-21.34.16-29.47s-36.78-8.15-50.87-.01Z"/>
      <path class="st6" d="M2199.85,2065.21c-9.56,0-19.12-2.11-26.38-6.33-7.37-4.29-11.42-10.1-11.41-16.38.01-6.31,4.13-12.17,11.6-16.48h0c14.62-8.44,38.32-8.43,52.82,0,7.38,4.29,11.43,10.1,11.42,16.38-.01,6.31-4.13,12.16-11.59,16.47-7.31,4.23-16.89,6.34-26.46,6.34ZM2175.6,2029.4h0c-6.21,3.59-9.64,8.25-9.65,13.11-.01,4.82,3.36,9.44,9.48,13,13.43,7.82,35.38,7.81,48.92,0,6.21-3.59,9.63-8.24,9.64-13.1.01-4.82-3.36-9.44-9.49-13-13.42-7.82-35.35-7.83-48.9-.01Z"/>
    </g>
    <path class="st2" d="M2199.9,2051.75c5.49,0,10.81-1.25,14.59-3.43,3.03-1.75,4.77-3.9,4.78-5.9,0-1.98-1.7-4.1-4.68-5.83-3.75-2.18-9.04-3.43-14.53-3.43s-10.8,1.25-14.58,3.43c-3.04,1.75-4.78,3.91-4.78,5.91s1.7,4.1,4.68,5.83c3.73,2.17,9.03,3.42,14.52,3.42Z"/>
  </g>
  <path class="st3" d="M2075.84,2122.38c5.9,0,11.61-1.34,15.67-3.69,3.26-1.88,5.13-4.19,5.13-6.34s-1.83-4.41-5.03-6.27c-4.02-2.34-9.71-3.68-15.6-3.68s-11.6,1.34-15.65,3.68c-3.26,1.88-5.13,4.2-5.13,6.35s1.83,4.4,5.02,6.26c4.02,2.35,9.7,3.69,15.59,3.69Z"/>
  <g>
    <path class="st4" d="M650.7,2161.1c14.09-8.14,14.17-21.34.17-29.48s-36.79-8.14-50.88,0-14.16,21.34-.16,29.47c14,8.14,36.78,8.15,50.87.01Z"/>
    <path class="st6" d="M625.24,2169.11c-9.56,0-19.12-2.11-26.38-6.33-7.38-4.29-11.43-10.1-11.42-16.38.01-6.31,4.13-12.16,11.59-16.47,14.6-8.44,38.3-8.44,52.84,0,7.37,4.29,11.42,10.1,11.41,16.37-.01,6.32-4.13,12.17-11.6,16.48-7.31,4.22-16.88,6.33-26.44,6.33ZM625.47,2127.44c-8.86,0-17.73,1.96-24.5,5.86-6.21,3.59-9.63,8.24-9.64,13.1-.01,4.82,3.36,9.44,9.49,13,13.43,7.82,35.38,7.82,48.91,0h0c6.21-3.59,9.64-8.25,9.65-13.12.01-4.82-3.36-9.44-9.48-12.99-6.72-3.89-15.57-5.85-24.43-5.85Z"/>
  </g>
  <path class="st2" d="M625.43,2137.06c-5.49,0-10.81,1.25-14.59,3.43-3.03,1.75-4.77,3.9-4.78,5.9,0,1.98,1.7,4.1,4.68,5.83,3.75,2.18,9.04,3.43,14.53,3.43s10.8-1.25,14.58-3.43c3.04-1.75,4.78-3.91,4.78-5.91s-1.7-4.1-4.68-5.83c-3.74-2.17-9.03-3.42-14.52-3.42Z"/>
  <path class="st3" d="M749.49,2066.43c-5.9,0-11.61,1.34-15.67,3.69-3.26,1.88-5.13,4.19-5.13,6.34s1.83,4.41,5.03,6.27c4.02,2.34,9.71,3.68,15.6,3.68s11.6-1.34,15.65-3.68c3.26-1.88,5.13-4.2,5.13-6.35s-1.83-4.4-5.02-6.26c-4.01-2.35-9.69-3.69-15.59-3.69Z"/>
  <path class="st3" d="M2206.09,729.58c-.67,0-1.32-.35-1.69-.97-.53-.93-.22-2.12.72-2.67l41.67-24.13c.91-.54,2.12-.23,2.67.71.53.93.22,2.12-.72,2.67l-41.67,24.13c-.31.17-.65.26-.98.26Z"/>
  <path class="st3" d="M2206.09,1187.49c-.67,0-1.32-.35-1.69-.97-.53-.93-.22-2.12.72-2.67l41.67-24.13c.91-.54,2.12-.23,2.67.71.53.93.22,2.12-.72,2.67l-41.67,24.13c-.31.18-.65.26-.98.26Z"/>
  <path class="st6" d="M272.24,1077.85c-.67,0-1.32-.35-1.68-.97-.54-.93-.23-2.12.7-2.67l282.49-164.22c7.52-4.36,16.87-4.39,24.4-.03l284.4,164.25c.93.54,1.25,1.73.72,2.66-.56.93-1.75,1.25-2.67.71l-284.4-164.25c-6.33-3.65-14.18-3.64-20.49.03l-282.49,164.22c-.31.18-.64.27-.98.27Z"/>
  <g>
    <g>
      <path class="st4" d="M319.95,1075.21c14.09-8.14,14.17-21.34.17-29.48s-36.79-8.14-50.88,0-14.16,21.34-.16,29.47,36.78,8.14,50.87.01Z"/>
      <path class="st6" d="M294.48,1083.22c-9.56,0-19.12-2.11-26.38-6.33-7.38-4.29-11.43-10.1-11.42-16.38.01-6.31,4.13-12.16,11.59-16.47,14.63-8.45,38.32-8.44,52.84,0,7.37,4.29,11.43,10.1,11.41,16.37-.01,6.32-4.12,12.17-11.59,16.48h0c-7.31,4.22-16.88,6.33-26.45,6.33ZM294.72,1041.55c-8.86,0-17.73,1.95-24.5,5.86-6.21,3.59-9.63,8.24-9.64,13.1-.01,4.82,3.36,9.44,9.49,13,13.44,7.82,35.38,7.81,48.91,0l.97,1.69-.97-1.69c6.21-3.59,9.64-8.24,9.64-13.11.01-4.82-3.36-9.44-9.48-13-6.72-3.89-15.57-5.85-24.42-5.85Z"/>
    </g>
    <path class="st2" d="M294.68,1051.17c-5.49,0-10.81,1.25-14.59,3.43-3.03,1.75-4.77,3.9-4.78,5.9,0,1.98,1.7,4.1,4.68,5.83,3.75,2.18,9.04,3.43,14.53,3.43s10.8-1.25,14.58-3.43c3.04-1.75,4.78-3.91,4.78-5.91s-1.7-4.1-4.68-5.83c-3.74-2.17-9.03-3.42-14.52-3.42Z"/>
  </g>
  <path class="st3" d="M418.74,980.53c-5.9,0-11.61,1.34-15.67,3.69-3.26,1.88-5.13,4.19-5.13,6.34s1.83,4.41,5.03,6.27c4.02,2.34,9.71,3.68,15.6,3.68s11.6-1.34,15.65-3.68c3.26-1.88,5.13-4.2,5.13-6.35s-1.83-4.4-5.02-6.26c-4.01-2.35-9.7-3.69-15.59-3.69Z"/>
  <path class="st6" d="M565.26,1892.73c-4.96,0-9.93-1.28-14.36-3.84l-210.66-121.64c-.93-.54-1.25-1.73-.72-2.66.54-.94,1.75-1.25,2.67-.71l210.66,121.64c7.69,4.44,17.23,4.42,24.89-.04l209.22-121.6c.93-.54,2.12-.23,2.67.71.54.93.23,2.12-.7,2.67l-209.22,121.6c-4.46,2.58-9.46,3.87-14.45,3.87Z"/>
  <g>
    <g>
      <path class="st4" d="M373.13,1753.47c14.1,8.14,14.18,21.34.17,29.48-14,8.14-36.8,8.14-50.89,0-14.1-8.14-14.16-21.34-.16-29.47,14-8.14,36.78-8.15,50.88-.01Z"/>
      <path class="st6" d="M347.9,1790.97c-9.57,0-19.15-2.11-26.46-6.33-7.46-4.31-11.58-10.16-11.59-16.47-.01-6.27,4.05-12.09,11.42-16.38,14.53-8.43,38.23-8.44,52.84,0h0c7.47,4.31,11.59,10.17,11.6,16.48.01,6.27-4.05,12.09-11.42,16.37-7.27,4.22-16.83,6.33-26.39,6.33ZM347.66,1749.3c-8.86,0-17.71,1.95-24.43,5.86-6.13,3.56-9.5,8.17-9.49,13,.01,4.86,3.43,9.51,9.64,13.1,13.53,7.82,35.49,7.82,48.93,0,6.12-3.56,9.5-8.17,9.49-12.99-.01-4.87-3.43-9.52-9.65-13.11-6.76-3.91-15.63-5.86-24.49-5.86Z"/>
    </g>
    <path class="st2" d="M347.85,1777.51c-5.5,0-10.81-1.25-14.59-3.43-3.03-1.75-4.77-3.9-4.78-5.9,0-1.98,1.7-4.1,4.68-5.83,3.75-2.18,9.04-3.43,14.53-3.43s10.8,1.25,14.58,3.43c3.04,1.75,4.78,3.91,4.78,5.91s-1.7,4.1-4.68,5.83c-3.73,2.17-9.03,3.42-14.52,3.42Z"/>
  </g>
  <path class="st3" d="M471.94,1848.15c-5.9,0-11.61-1.34-15.67-3.69-3.26-1.88-5.13-4.19-5.13-6.34s1.83-4.41,5.03-6.27c4.02-2.34,9.71-3.68,15.61-3.68s11.6,1.34,15.66,3.68c3.26,1.88,5.13,4.2,5.14,6.35,0,2.12-1.83,4.4-5.03,6.26-4.03,2.34-9.72,3.69-15.61,3.69Z"/>
  <path class="st6" d="M1293.54,1425.76c-.67,0-1.32-.35-1.68-.97-.54-.93-.23-2.12.7-2.67l885.75-514.88c.93-.54,2.12-.23,2.67.71.54.93.23,2.12-.7,2.66l-885.75,514.88c-.32.19-.65.27-.99.27Z"/>
  <path class="st3" d="M1717.66,1166.37c-5.9,0-11.61,1.34-15.67,3.69-3.26,1.88-5.13,4.19-5.13,6.34s1.83,4.41,5.03,6.26c4.02,2.34,9.71,3.68,15.6,3.68s11.6-1.34,15.65-3.68c3.26-1.88,5.13-4.2,5.13-6.35s-1.83-4.4-5.02-6.26c-4.01-2.34-9.69-3.68-15.59-3.68Z"/>
  <g class="st7">
    <path d="M277.22,1468.41c-33.5,19.34-33.68,50.65-.39,70l1197.58,696.1c33.28,19.34,87.32,19.34,120.82,0l627.16-362.16c33.5-19.34,33.67-50.66.39-70l-1197.58-696.1c-33.28-19.35-87.32-19.34-120.82,0l-627.16,362.16Z"/>
  </g>
  <path class="st0" d="M2248.03,1789.5c0,12.63-8.45,25.43-25.25,35.1l-627.23,362.15c-10.1,5.83-22.03,9.93-34.74,12.19-8.19,1.57-16.81,2.35-25.34,2.35s-16.98-.7-25.25-2.18c-12.98-2.26-25.17-6.36-35.35-12.37L277.27,1490.66c-16.63-9.58-24.9-22.12-24.9-34.66l-.37-146.14c0,12.63,8.27,25.26,24.82,34.75l1197.6,696.17c10.36,6.1,22.64,10.19,35.79,12.37,8.27,1.48,16.72,2.09,25.25,2.09s17.07-.78,25.34-2.35c12.63-2.26,24.47-6.36,34.48-12.11l627.06-362.15c16.89-9.84,25.25-22.47,25.25-35.36l.44,146.23Z"/>
  <path class="st1" d="M1560.8,2052.88v146.06c-8.19,1.57-16.81,2.35-25.34,2.35s-16.98-.7-25.25-2.18v-145.97c8.27,1.48,16.72,2.09,25.25,2.09,8.54,0,17.07-.78,25.34-2.35Z"/>
  <path class="st3" d="M1534.93,2203.24c-23.11,0-44.79-5.24-61.1-14.77L276.24,1492.37c-16.66-9.62-25.84-22.54-25.84-36.38l-.39-145.95v-.15h0c0-1.08.87-1.96,1.95-1.96h0c1.07,0,1.95.87,1.95,1.95v.15c.07,12.45,8.54,24.15,23.88,32.94l1197.61,696.11c15.75,9.19,36.88,14.24,59.52,14.24h.53c22.17-.08,43.06-5.14,58.83-14.24l627.13-362.17c15.66-9.14,24.28-21.08,24.28-33.63,0-1.08.87-1.95,1.95-1.95h0c1.07,0,1.95.87,1.95,1.95l.39,146.19c0,14.05-9.32,27.14-26.23,36.86l-627.2,362.16c-16.42,9.44-38.11,14.68-61.07,14.77-.19-.02-.36-.02-.55-.02ZM253.96,1325.33l.35,130.65c0,12.39,8.48,24.11,23.89,33.01l1197.6,696.11c15.72,9.19,36.71,14.24,59.13,14.24h.52c22.3-.08,43.3-5.14,59.14-14.25l627.2-362.16c15.66-9,24.28-20.88,24.28-33.48l-.35-130.9c-4.22,8.12-11.81,15.55-22.36,21.71l-627.14,362.17c-16.35,9.44-37.93,14.68-60.76,14.76h-.53c-23.33,0-45.15-5.24-61.49-14.77L275.85,1346.32c-10.28-5.88-17.7-13.06-21.89-20.99Z"/>
  <g>
    <line class="st5" x1="2183.01" y1="1701.33" x2="2183.01" y2="1847.58"/>
    <path class="st3" d="M2183.02,1849.53c-1.07,0-1.95-.87-1.95-1.95v-146.25c0-1.08.88-1.95,1.95-1.95s1.95.87,1.95,1.95v146.25c0,1.08-.88,1.95-1.95,1.95Z"/>
  </g>
  <g>
    <g>
      <path class="st3" d="M558.79,1575.67c-.09,6.1-2.18,10.47-5.64,12.47l-12.8,7.44c3.46-2.09,5.55-6.37,5.64-12.47,0-12.29-8.64-27.21-19.29-33.4l-93.2-53.81c-5.46-3.09-10.28-3.37-13.83-1.36l12.8-7.44c3.55-2,8.37-1.73,13.83,1.36l93.2,53.81c10.65,6.19,19.29,21.11,19.29,33.4Z"/>
      <path class="st3" d="M540.35,1597.53c-.66,0-1.31-.34-1.68-.96-.55-.92-.25-2.11.67-2.66,2.95-1.79,4.62-5.63,4.7-10.83,0-11.59-8.22-25.81-18.33-31.69l-93.19-53.81c-4.58-2.6-8.83-3.09-11.89-1.36-.94.52-2.12.2-2.65-.73-.53-.93-.21-2.11.71-2.65l12.8-7.44c4.32-2.44,9.92-1.96,15.77,1.36l93.22,53.81c11.18,6.5,20.27,22.24,20.27,35.09v.03c-.1,6.7-2.45,11.71-6.62,14.12l-12.79,7.44c-.32.2-.65.28-.99.28ZM428.35,1491.74c1.97.46,4.02,1.28,6.11,2.46l93.22,53.81c11.37,6.61,20.27,22.02,20.27,35.09-.04,2.32-.34,4.44-.91,6.33l5.14-2.99c2.93-1.7,4.59-5.53,4.68-10.8-.01-11.61-8.22-25.83-18.33-31.7l-93.19-53.81c-4.61-2.6-8.83-3.08-11.89-1.36l-5.1,2.97ZM558.79,1575.67h.05-.05Z"/>
    </g>
    <g>
      <path class="st4" d="M526.68,1549.73c10.69,6.17,19.32,21.12,19.28,33.41-.03,12.29-8.72,17.24-19.41,11.06l-93.22-53.84c-10.69-6.17-19.32-21.12-19.28-33.41.03-12.29,8.72-17.24,19.41-11.06l93.22,53.84Z"/>
      <path class="st3" d="M535.24,1598.82c-3,0-6.29-.98-9.66-2.93l-93.22-53.84c-11.2-6.46-20.29-22.21-20.26-35.1.02-6.65,2.38-11.67,6.66-14.12,4.29-2.47,9.87-1.98,15.67,1.37l93.22,53.84h0c11.21,6.47,20.29,22.22,20.25,35.1-.02,6.64-2.38,11.66-6.65,14.12-1.8,1.04-3.82,1.56-6.01,1.56ZM424.79,1495.18c-1.51,0-2.89.34-4.08,1.03-3.02,1.73-4.69,5.55-4.71,10.75-.03,11.64,8.19,25.87,18.31,31.71l93.22,53.84c4.56,2.63,8.76,3.12,11.79,1.37,3.02-1.74,4.68-5.55,4.7-10.75.04-11.64-8.18-25.87-18.3-31.72l-93.22-53.84c-2.77-1.59-5.4-2.39-7.71-2.39Z"/>
    </g>
  </g>
  <g>
    <path class="st3" d="M277.23,1274.66c-33.5,19.34-33.68,50.65-.39,70l1197.58,696.1c33.28,19.34,87.32,19.34,120.82,0l627.16-362.16c33.5-19.34,33.67-50.66.39-70l-1197.58-696.1c-33.28-19.35-87.32-19.34-120.82,0l-627.16,362.16Z"/>
    <path class="st3" d="M1534.74,2057.15c-22.23,0-44.44-4.9-61.31-14.71L275.85,1346.34c-16.66-9.69-25.83-22.67-25.81-36.56.02-13.98,9.33-27.06,26.22-36.81l627.16-362.16c33.94-19.61,89.03-19.61,122.77,0l1197.58,696.1c16.67,9.69,25.84,22.68,25.81,36.57-.02,13.99-9.33,27.06-26.22,36.81l-627.16,362.16c-16.97,9.8-39.23,14.7-61.46,14.7ZM277.23,1274.66l.97,1.69c-15.63,9.03-24.25,20.91-24.27,33.44-.02,12.45,8.46,24.23,23.88,33.19l1197.58,696.1c32.65,18.99,85.98,18.99,118.86,0l627.16-362.16c15.63-9.03,24.25-20.9,24.27-33.44.02-12.45-8.46-24.23-23.88-33.19l-1197.58-696.1c-32.66-18.99-85.99-18.99-118.86,0l-627.16,362.15-.97-1.68Z"/>
  </g>
  <g>
    <path class="st4" d="M263.66,1309.8c0,8.66,6.94,17.7,19.02,24.72l1197.59,696.11c14.34,8.34,33.68,12.94,54.49,12.94s40.15-4.6,54.64-12.94l627.13-362.17c12.32-7.09,19.41-16.22,19.41-25.03s-6.94-17.7-19.02-24.72L1019.34,922.6c-14.34-8.34-33.68-12.94-54.49-12.94s-40.15,4.6-54.64,12.94l-627.13,362.17c-12.33,7.09-19.42,16.22-19.42,25.03Z"/>
    <path class="st3" d="M1534.76,2045.51c-21.13,0-40.83-4.69-55.47-13.21L281.7,1336.2c-12.7-7.38-19.99-17-19.99-26.4s7.43-19.25,20.38-26.72l627.14-362.16c14.79-8.52,34.55-13.21,55.62-13.21s40.84,4.69,55.47,13.21l1197.59,696.1c12.7,7.38,19.99,17.01,19.99,26.41s-7.43,19.26-20.38,26.72l-627.13,362.16c-14.8,8.51-34.55,13.2-55.63,13.2ZM964.85,911.61c-20.4,0-39.46,4.5-53.67,12.69l-627.14,362.16c-11.72,6.75-18.43,15.26-18.43,23.34s6.58,16.37,18.05,23.03l1197.59,696.11c14.06,8.18,33.05,12.68,53.51,12.68s39.47-4.5,53.67-12.69l627.13-362.16c11.72-6.75,18.43-15.25,18.43-23.34s-6.58-16.37-18.05-23.03L1018.35,924.3c-14.05-8.19-33.05-12.69-53.5-12.69Z"/>
  </g>
  <g>
    <path class="st3" d="M806.77,1055.33c-9.25,5.41-244.82,142.3-255.74,148.65-17.47,10.14-45.97,10.14-63.49.05l-31.89-18.46c10.93-6.35,306.63-178.18,319.08-185.42l31.89,18.41c17.52,10.14,17.62,26.63.15,36.77Z"/>
    <path class="st3" d="M519.25,1213.51c-11.83,0-23.66-2.6-32.69-7.79l-31.89-18.46c-.6-.35-.97-.99-.97-1.69s.37-1.34.97-1.69l319.08-185.42c.61-.35,1.35-.35,1.96,0l31.89,18.41c9.14,5.28,14.16,12.44,14.17,20.13.01,7.65-4.97,14.76-14.01,20.01h0c-5.35,3.13-86.48,50.29-241.14,140.17l-14.6,8.49c-9.03,5.23-20.9,7.84-32.77,7.84ZM459.53,1185.56l28.98,16.78c17.01,9.78,44.61,9.77,61.54-.05l14.6-8.49c154.66-89.88,235.79-137.03,241.14-140.16h0c7.8-4.52,12.08-10.43,12.08-16.64s-4.35-12.2-12.22-16.76l-30.91-17.84-315.21,183.16Z"/>
  </g>
  <g>
    <path class="st4" d="M569.1,1164.99c-7.26,0-14.05-1.61-19.1-4.53-4.55-2.63-7.06-5.92-7.07-9.27,0-3.3,2.44-6.54,6.87-9.12l198.17-115.18c5.03-2.92,11.82-4.53,19.11-4.53s14.13,1.62,19.22,4.56c4.5,2.6,6.98,5.86,6.98,9.19.01,3.32-2.45,6.57-6.91,9.17l-198.16,115.18c-5.04,2.91-11.82,4.53-19.11,4.53Z"/>
    <path class="st4" d="M517.72,1194.85c-7.26,0-14.04-1.61-19.1-4.53-4.55-2.62-7.05-5.92-7.06-9.26-.01-3.31,2.45-6.55,6.9-9.14,5.03-2.92,11.82-4.54,19.11-4.54s14.13,1.62,19.22,4.56c4.49,2.6,6.97,5.86,6.98,9.19.01,3.32-2.45,6.57-6.91,9.17-5.05,2.93-11.85,4.55-19.14,4.55Z"/>
    <path class="st2" d="M517.7,1189.28c-4.32,0-8.35-.96-11.35-2.69-2.71-1.56-4.19-3.52-4.2-5.51,0-1.96,1.45-3.9,4.1-5.44,2.99-1.74,7.03-2.7,11.36-2.7s8.4.96,11.43,2.71c2.67,1.54,4.14,3.48,4.15,5.46,0,1.97-1.45,3.91-4.11,5.45-3.01,1.76-7.05,2.72-11.38,2.72Z"/>
  </g>
  <path class="st3" d="M1655.54,2071.9c6.91-3.99,12.49-.7,12.51,7.23.02,8.04-5.52,17.64-12.43,21.63-7.09,4.09-12.67.91-12.69-7.13-.02-7.93,5.52-17.64,12.61-21.73Z"/>
  <path class="st3" d="M1707.23,2042.05c6.91-3.99,12.49-.7,12.51,7.23.02,8.04-5.52,17.64-12.43,21.63-7.09,4.09-12.67.91-12.69-7.13-.02-7.93,5.52-17.64,12.61-21.73Z"/>
  <path class="st3" d="M1758.92,2012.2c6.91-3.99,12.49-.7,12.51,7.23.02,8.04-5.52,17.64-12.43,21.63-7.09,4.09-12.67.91-12.69-7.13-.02-7.93,5.52-17.64,12.61-21.73Z"/>
  <path class="st3" d="M2082.99,1825.08c6.91-3.99,12.49-.7,12.51,7.23.02,8.04-5.52,17.64-12.43,21.63-7.09,4.09-12.67.91-12.69-7.13-.02-7.93,5.52-17.64,12.61-21.73Z"/>
  <path class="st3" d="M2134.68,1795.23c6.91-3.99,12.49-.7,12.51,7.23.02,8.04-5.52,17.64-12.43,21.63-7.09,4.09-12.67.91-12.69-7.13-.02-7.93,5.52-17.64,12.61-21.73Z"/>
  <path class="st3" d="M1989.4,1908.31c7.07-4.08,12.8-14.01,12.78-22.13-.02-8.13-5.79-11.41-12.86-7.33l-136.92,79.07c-7.07,4.08-12.78,13.99-12.76,22.12s5.77,11.42,12.84,7.34l136.92-79.07Z"/>
  <g>
    <line class="st5" x1="1396.69" y1="1995.57" x2="1396.69" y2="2141.38"/>
    <path class="st3" d="M1396.69,2143.33c-1.07,0-1.95-.87-1.95-1.95v-145.81c0-1.08.88-1.95,1.95-1.95s1.95.87,1.95,1.95v145.81c0,1.08-.87,1.95-1.95,1.95Z"/>
  </g>
  <g>
    <line class="st5" x1="347.11" y1="1385.51" x2="347.11" y2="1531.31"/>
    <path class="st3" d="M347.11,1533.25c-1.07,0-1.95-.87-1.95-1.95v-145.8c0-1.08.88-1.95,1.95-1.95s1.95.87,1.95,1.95v145.8c0,1.08-.87,1.95-1.95,1.95Z"/>
  </g>
  <path class="st1" d="M1113.75,1880.26c11.59,6.69,20.94,22.9,20.91,36.22-.04,13.32-9.45,18.69-21.04,11.99l-225.09-130.01c-11.59-6.69-20.94-22.9-20.91-36.22.04-13.32,9.45-18.69,21.04-11.99l225.09,130.01Z"/>
  <path class="st3" d="M1113.48,1893.59c-5.03-2.9-9.09-.51-9.11,5.27-.02,5.85,4.02,12.84,9.05,15.75,5.16,2.98,9.22.66,9.24-5.19.01-5.79-4.02-12.85-9.18-15.83Z"/>
  <g class="st7">
    <path d="M1613.67,948.83c-6.84,3.95-6.88,10.35-.08,14.29l567.7,337.1c6.78,3.94,17.84,3.95,24.68,0l32.01-18.48c6.84-3.95,6.86-10.35.08-14.29l-567.7-337.1c-6.8-3.95-17.84-3.95-24.68,0l-32.01,18.48Z"/>
  </g>
  <path class="st6" d="M1616.24,280.26c6.93-4.07,16.53-3.47,27.13,2.6l523.8,302.45c4.87,2.8,9.47,6.53,13.73,10.93,10.73,11,19.13,26.13,22.53,40.86,1.13,4.73,1.73,9.47,1.73,14l-1.2,590.42c0,12.07-4.33,20.47-11.13,24.47l42.6-24.67c6.8-4,11.07-12.47,11.13-24.53l1.2-590.48c0-4.47-.53-9.13-1.67-13.87-3.4-14.73-11.73-29.8-22.53-40.86-4.2-4.4-8.93-8.2-13.8-11l-523.8-302.38c-10.6-6.13-20.2-6.67-27.13-2.73l-42.59,24.79Z"/>
  <path class="st1" d="M2183.89,600.43c10.51,10.78,18.74,25.6,22.07,40.03l41.8-24.16c-3.33-14.43-11.49-29.19-22.07-40.03l-41.8,24.16Z"/>
  <path class="st3" d="M2192.83,1267.93c-.67,0-1.32-.35-1.68-.97-.54-.93-.23-2.12.69-2.66,6.56-3.86,10.17-11.95,10.17-22.79l1.2-590.42c0-4.33-.56-8.89-1.68-13.54-3.28-14.25-11.52-29.18-22.03-39.96-4.3-4.43-8.78-8-13.32-10.61l-523.78-302.44c-9.65-5.51-18.56-6.46-25.1-2.65l-.06.03s-.01,0-.02.01h0c-.94.53-2.12.22-2.67-.7-.54-.93-.23-2.12.7-2.67.04-.02.08-.05.11-.07l42.49-24.73c7.96-4.5,18.28-3.53,29.09,2.73l523.8,302.38c4.96,2.85,9.88,6.78,14.23,11.35,11.14,11.4,19.53,26.63,23.02,41.77,1.14,4.75,1.72,9.56,1.72,14.3l-1.2,590.49c-.07,12.36-4.36,21.66-12.09,26.21l-42.62,24.67c-.3.19-.63.27-.97.27ZM1627.86,275.74c5.14.31,10.72,2.13,16.48,5.42l523.8,302.45c4.84,2.79,9.61,6.58,14.16,11.26,10.98,11.27,19.59,26.89,23.03,41.79,1.19,4.94,1.79,9.8,1.79,14.44l-1.2,590.42c0,6.45-1.19,12.08-3.45,16.63l32-18.52c6.48-3.82,10.1-11.94,10.16-22.86l1.2-590.48c0-4.43-.54-8.94-1.61-13.41-3.29-14.27-11.52-29.19-22.03-39.95-4.12-4.32-8.73-8.01-13.38-10.68l-523.8-302.38c-9.59-5.54-18.53-6.5-25.2-2.73l-31.95,18.6Z"/>
  <g>
    <path class="st3" d="M1605.1,304.66c.07-24.17,17.24-33.9,38.27-21.75l523.78,302.39c21.08,12.17,38.09,41.63,38.02,65.8l-.21,75.61-600.07-346.43.21-75.62Z"/>
    <path class="st3" d="M2204.96,728.65c-.33,0-.67-.09-.97-.26l-600.07-346.44c-.6-.35-.97-.99-.97-1.69l.21-75.61c.04-12.36,4.36-21.64,12.16-26.12,7.87-4.54,18.19-3.57,29.03,2.69l523.78,302.39c21.57,12.45,39.07,42.73,39,67.49l-.21,75.61c0,.7-.37,1.34-.97,1.69-.32.17-.65.25-.99.25ZM1606.84,379.15l596.18,344.19.21-72.25c.07-23.52-16.55-52.27-37.05-64.11l-523.78-302.38c-9.6-5.54-18.53-6.49-25.14-2.69-6.55,3.77-10.17,11.85-10.2,22.76h-1.95,1.95l-.22,74.48Z"/>
  </g>
  <g>
    <path class="st4" d="M2204.96,726.7l-1.02,514.84c-.07,24.23-17.19,33.98-38.27,21.81l-523.78-302.39c-21.03-12.14-38.09-41.63-38.02-65.86l1.02-514.84,600.07,346.44Z"/>
    <path class="st3" d="M2182.81,1270.56c-5.6,0-11.76-1.85-18.11-5.52l-523.78-302.39c-21.57-12.45-39.07-42.75-39-67.55l1.02-514.84c0-.7.37-1.34.97-1.69.61-.34,1.34-.35,1.95,0l600.07,346.44c.6.35.97.99.97,1.69l-1.02,514.84c-.04,12.4-4.36,21.7-12.16,26.2-3.26,1.89-6.94,2.82-10.91,2.82ZM1606.83,383.64l-1.01,511.47c-.07,23.55,16.55,52.33,37.05,64.17l523.78,302.39c9.6,5.54,18.52,6.51,25.14,2.7,6.56-3.77,10.18-11.88,10.21-22.83l1.02-513.72-596.19-344.18Z"/>
  </g>
  <g>
    <path class="st4" d="M1788.8,406.95c-8.89-5.13-16.03-1.06-16.06,9.15-.03,10.12,7.07,22.51,15.96,27.64,8.88,5.13,16.03.97,16.06-9.15.02-10.22-7.08-22.51-15.96-27.64Z"/>
    <path class="st4" d="M1721.95,368.35c-8.81-5.09-16.03-1.06-16.06,9.15-.03,10.12,7.15,22.55,15.96,27.64,8.89,5.13,16.03.97,16.06-9.15.03-10.21-7.07-22.51-15.96-27.64Z"/>
    <path class="st4" d="M1655.1,329.72c-8.83-5.1-15.99-1.02-16.02,9.22-.03,10.15,7.09,22.56,15.92,27.66,8.91,5.14,16.07.97,16.1-9.18.03-10.23-7.09-22.56-16-27.7Z"/>
  </g>
  <g>
    <g>
      <path class="st4" d="M1721.69,723.61c-7.01-4.05-12.71-.77-12.73,7.25l-.17,60.52c-.02,8.06,5.63,17.85,12.65,21.9l344.29,198.76c7.01,4.05,12.7.81,12.73-7.25l.17-60.52c.02-8.02-5.63-17.85-12.65-21.9l-344.29-198.76Z"/>
      <path class="st3" d="M2071.43,1015.74c-2.09,0-4.36-.67-6.68-2.01l-344.28-198.76c-7.66-4.42-13.65-14.79-13.62-23.59l.18-60.52c.02-4.6,1.68-8.09,4.71-9.83,3.04-1.74,6.93-1.43,10.94.9l344.29,198.75c7.66,4.42,13.65,14.79,13.62,23.59l-.18,60.52c-.02,4.61-1.68,8.11-4.7,9.84-1.29.74-2.74,1.11-4.28,1.11ZM1716.02,723.82c-.88,0-1.67.2-2.35.59-1.77,1.02-2.74,3.31-2.75,6.46l-.18,60.52c-.02,7.42,5.22,16.48,11.67,20.21l344.28,198.76c2.78,1.6,5.28,1.93,7.07.89,1.76-1.01,2.73-3.31,2.74-6.47l.18-60.52c.02-7.29-5.32-16.54-11.67-20.21l-344.29-198.75h0c-1.71-.98-3.31-1.48-4.7-1.48Z"/>
    </g>
    <g>
      <path class="st2" d="M2016.02,909.14c-.84-.48-1.53-.09-1.53.87l-.05,17.41-13.09-16.27c-.24-.31-.51-.54-.77-.69-.53-.3-1.04-.28-1.31.12l-3.59,5.01c-.4.61-.15,1.8.58,2.72l13.09,16.27-13.14,1.14c-.73.08-.99.98-.59,2.05l3.55,9.13c.27.71.77,1.32,1.3,1.63.26.15.53.23.77.2l13.14-1.14-.05,17.41c0,.96.69,2.16,1.53,2.64l7.1,4.1c.84.48,1.53.09,1.53-.87l.05-17.41,13.09,16.27c.24.31.51.54.76.69.52.3,1.02.27,1.31-.12l3.59-5.01c.4-.61.15-1.8-.58-2.72l-13.09-16.27,13.14-1.14c.73-.08.99-.98.59-2.05l-3.55-9.13c-.29-.73-.79-1.33-1.31-1.63-.26-.15-.52-.22-.77-.2l-13.14,1.14.05-17.41c0-.96-.69-2.16-1.52-2.64l-7.09-4.1Z"/>
      <path class="st2" d="M1953.12,872.83c-.84-.48-1.5-.07-1.5.9l-.05,17.41-13.12-16.3c-.24-.31-.51-.54-.76-.69-.52-.3-1.02-.27-1.31.12l-3.55,5.03c-.44.58-.19,1.78.54,2.7l13.09,16.27-13.14,1.14c-.73.08-.99.98-.55,2.07l3.51,9.11c.29.73.79,1.33,1.31,1.63.26.15.52.22.77.2l13.17-1.11-.05,17.41c0,.96.65,2.14,1.49,2.62l7.1,4.1c.84.48,1.53.09,1.53-.87l.05-17.41,13.09,16.27c.24.31.51.54.77.69.53.3,1.04.28,1.31-.12l3.59-5.01c.4-.61.19-1.78-.54-2.7l-13.12-16.3,13.17-1.11c.73-.08.95-1,.55-2.07l-3.55-9.13c-.27-.71-.77-1.32-1.3-1.63-.26-.15-.53-.23-.77-.2l-13.14,1.14.05-17.41c0-.96-.69-2.16-1.52-2.64l-7.12-4.11Z"/>
      <path class="st2" d="M1890.26,836.54c-.87-.5-1.53-.09-1.53.87l-.05,17.41-13.12-16.3c-.23-.3-.49-.53-.75-.68-.52-.3-1.03-.28-1.29.13l-3.59,5.01c-.4.61-.19,1.78.54,2.7l13.12,16.3-13.17,1.11c-.73.08-.95,1-.55,2.07l3.55,9.13c.27.71.77,1.32,1.29,1.62.26.15.52.22.75.19l13.17-1.11-.05,17.41c0,.96.65,2.14,1.52,2.64l7.1,4.1c.84.48,1.5.07,1.5-.9l.05-17.41,13.12,16.3c.24.31.51.54.76.69.52.3,1.02.27,1.31-.12l3.55-5.03c.44-.58.19-1.78-.54-2.7l-13.12-16.3,13.17-1.11c.73-.08.99-.98.55-2.07l-3.51-9.11c-.29-.73-.79-1.33-1.31-1.63-.26-.15-.52-.22-.77-.2l-13.17,1.11.05-17.41c0-.96-.65-2.14-1.49-2.62l-7.09-4.09Z"/>
      <path class="st2" d="M1827.35,800.22c-.84-.48-1.53-.09-1.54.87l-.05,17.41-13.09-16.27c-.24-.31-.51-.54-.77-.69-.53-.3-1.04-.28-1.31.12l-3.59,5.01c-.4.61-.15,1.8.58,2.72l13.09,16.27-13.14,1.14c-.73.08-.99.98-.59,2.05l3.55,9.13c.27.71.77,1.32,1.3,1.63.26.15.53.23.77.2l13.14-1.14-.05,17.41c0,.96.69,2.16,1.53,2.64l7.1,4.1c.84.48,1.53.09,1.53-.87l.05-17.41,13.09,16.27c.24.31.51.54.76.69.52.3,1.02.27,1.31-.12l3.59-5.01c.4-.61.15-1.8-.58-2.72l-13.09-16.27,13.14-1.14c.73-.08.99-.98.59-2.05l-3.55-9.13c-.29-.73-.79-1.33-1.31-1.63-.26-.15-.52-.22-.77-.2l-13.14,1.14.05-17.41c0-.96-.69-2.16-1.52-2.64l-7.08-4.1Z"/>
      <path class="st2" d="M1764.45,763.91c-.84-.48-1.5-.07-1.5.9l-.05,17.41-13.12-16.3c-.24-.31-.51-.54-.76-.69-.52-.3-1.02-.27-1.31.12l-3.55,5.03c-.44.58-.19,1.78.54,2.7l13.09,16.27-13.14,1.14c-.73.08-.99.98-.55,2.07l3.51,9.11c.29.73.79,1.33,1.31,1.63.26.15.52.22.77.2l13.17-1.11-.05,17.41c0,.96.65,2.14,1.49,2.62l7.1,4.1c.87.5,1.53.09,1.53-.87l.05-17.41,13.09,16.27c.24.31.51.54.77.69.53.3,1.04.28,1.31-.12l3.59-5.01c.4-.61.19-1.78-.54-2.7l-13.12-16.3,13.17-1.11c.73-.08.95-1,.55-2.07l-3.55-9.13c-.27-.71-.77-1.32-1.3-1.63-.26-.15-.53-.23-.77-.2l-13.14,1.14.05-17.41c0-.96-.65-2.14-1.52-2.64l-7.12-4.11Z"/>
    </g>
  </g>
  <g>
    <path class="st2" d="M1903.41,710.39c-23.48-13.55-44.34-12.66-57.47-.21,13.07,27.58,33.83,52.5,57.28,66.03,23.45,13.54,44.31,12.64,57.47.21-13.01-27.55-33.8-52.48-57.28-66.03Z"/>
    <g>
      <path class="st3" d="M1935.31,788.04c-10.23,0-21.53-3.4-33.2-10.14-40.15-23.17-72.7-79.55-72.57-125.67.06-22.69,7.9-39.67,22.05-47.82,14.25-8.2,33.05-6.4,52.94,5.08h0c40.15,23.17,72.7,79.55,72.57,125.67-.06,22.68-7.9,39.66-22.06,47.81-5.88,3.39-12.54,5.07-19.73,5.07ZM1871.33,603.25c-6.52,0-12.52,1.51-17.79,4.55-12.9,7.42-20.03,23.21-20.09,44.45-.13,44.88,31.55,99.73,70.62,122.29,18.63,10.75,36.05,12.55,49.04,5.07,12.9-7.43,20.04-23.21,20.1-44.44.13-44.88-31.55-99.74-70.62-122.29-11.08-6.41-21.72-9.63-31.26-9.63Z"/>
      <path class="st0" d="M1899.83,637.74c-12.69-7.33-23-1.43-23.04,13.16-.04,14.55,10.2,32.31,22.89,39.64,12.69,7.33,23.02,1.44,23.07-13.11.04-14.58-10.22-32.36-22.92-39.69Z"/>
    </g>
  </g>
  <g>
    <path class="st2" d="M1754.58,883.78c-4.9-2.83-8.92-.54-8.93,5.09l-.2,69.06c-.02,5.64,3.97,12.54,8.88,15.37l230.41,133.03c4.9,2.83,8.92.54,8.93-5.09l.2-69.06c.02-5.64-3.97-12.54-8.88-15.37l-230.41-133.03Z"/>
    <g>
      <polygon class="st4" points="1777.61 917.01 1777.49 960.91 1798.81 973.22 1798.8 979.06 1771.75 963.45 1771.89 913.7 1777.61 917.01"/>
      <path class="st4" d="M1842.88,966.28c1.67,4.93,2.52,9.86,2.5,14.82-.01,5.06-.93,9.07-2.72,12.01-1.78,2.99-4.29,4.52-7.56,4.72-3.27.15-6.77-.83-10.54-3-4.08-2.36-7.71-5.6-10.93-9.7-3.17-4.13-5.61-8.62-7.23-13.47-1.67-4.88-2.47-9.52-2.46-13.85.02-8.29,1.95-13.66,5.82-16.12,3.92-2.39,8.87-1.88,15,1.66,3.99,2.31,7.57,5.47,10.79,9.52,3.22,4.04,5.66,8.53,7.33,13.41ZM1835.22,990.06c2.82-1.87,4.2-5.98,4.22-12.4.01-4.07-.57-7.95-1.74-11.66-1.17-3.71-2.93-7.02-5.2-10-2.31-3.01-4.89-5.33-7.71-6.96-4.08-2.36-7.58-2.81-10.5-1.25-2.96,1.48-4.43,6.01-4.45,13.47-.02,6.05,1.38,11.55,4.18,16.62s6.29,8.86,10.56,11.32c4.32,2.49,7.86,2.76,10.64.86"/>
      <path class="st4" d="M1873.04,971.27c3.13,1.81,5.99,4.03,8.48,6.62,2.54,2.67,4.53,5.44,5.98,8.36,1.4,2.9,2.48,6.24,3.24,10.02l-5.18-1.37c-.63-2.87-1.44-5.37-2.39-7.33-.99-2.04-2.35-3.97-4.16-5.9-1.77-1.91-3.76-3.48-5.94-4.74-2.63-1.52-4.9-2.36-6.81-2.57-1.91-.16-3.46.15-4.64.92-1.14.86-2.1,1.98-2.74,3.38-1.1,2.45-1.65,5.47-1.66,9.07-.01,4.43.61,8.5,1.97,12.26,1.31,3.78,3.25,7.1,5.79,10.03,2.54,2.93,5.21,5.2,8.07,6.85,2.5,1.44,4.9,2.26,7.27,2.52,2.36.27,4.18.17,5.41-.38l.03-9.28-12.75-7.36.02-5.84,18.33,10.53-.05,18.51c-2.82.93-5.73,1.18-8.73.76-3-.43-6.04-1.5-9.22-3.34-4.27-2.46-8.12-5.73-11.56-9.86-3.49-4.1-6.11-8.65-7.87-13.63s-2.65-9.94-2.64-14.79.93-8.86,2.72-12.01c1.78-3.2,4.29-4.89,7.6-5.01,3.31-.12,7.12,1.09,11.43,3.58Z"/>
      <polygon class="st4" points="1923.41 1001.18 1923.27 1050.93 1917.51 1047.6 1917.65 997.86 1923.41 1001.18"/>
      <polygon class="st4" points="1967.56 1026.67 1967.42 1076.42 1961.52 1073.01 1938.9 1020.78 1938.79 1059.89 1933.3 1056.72 1933.44 1006.97 1939.34 1010.38 1961.96 1062.56 1962.07 1023.5 1967.56 1026.67"/>
    </g>
  </g>
  <path class="st3" d="M1672.15,301.42c-.67,0-1.32-.35-1.68-.97-.54-.93-.23-2.12.71-2.67l41.01-23.78c.91-.54,2.12-.23,2.66.71.54.93.23,2.12-.71,2.67l-41.01,23.78c-.31.18-.64.26-.98.26Z"/>
  <g>
    <g>
      <path class="st0" d="M549.87,1344.68l.18,65.98c0,7.18,4.73,14.37,14.19,19.89l113,65.28c2.37,1.4,4.91,2.54,7.53,3.59,15.51,5.96,35.48,6.22,51.42.88,3.59-1.23,7.01-2.72,10.07-4.47l495.91-286.35c9.64-5.61,14.45-12.88,14.45-20.15l-.18-66.07c0,7.27-4.82,14.63-14.45,20.07l-495.99,286.53c-2.98,1.75-6.31,3.24-9.81,4.29-15.94,5.52-35.92,5.26-51.42-.7-2.72-.96-5.34-2.19-7.71-3.59l-113.09-65.28c-9.37-5.54-14.1-12.72-14.1-19.9Z"/>
      <g>
        <path class="st4" d="M564.24,1324.57c-19.12,11.04-19.22,28.95-.23,39.99l113.03,65.26c19,11.04,49.9,11.04,69.02,0l495.95-286.41c19.12-11.04,19.22-28.95.22-39.99l-113.03-65.26c-19-11.04-49.9-11.04-69.02,0l-495.94,286.41Z"/>
        <path class="st3" d="M711.51,1440.01c-12.85,0-25.69-2.83-35.44-8.5l-113.02-65.26c-9.78-5.69-15.17-13.36-15.16-21.61.02-8.3,5.47-16.03,15.38-21.75h0l495.96-286.41c19.63-11.34,51.47-11.34,70.97,0l113.03,65.26c9.78,5.69,15.16,13.36,15.15,21.61-.02,8.3-5.47,16.03-15.38,21.75l-495.96,286.4c-9.81,5.67-22.68,8.51-35.53,8.51ZM565.21,1326.25h0c-8.65,5-13.42,11.53-13.43,18.38-.01,6.8,4.68,13.28,13.22,18.24l113.02,65.26c18.44,10.72,48.54,10.71,67.08,0l495.95-286.41c8.65-5,13.42-11.52,13.43-18.38.01-6.8-4.68-13.28-13.21-18.24l-113.03-65.26c-18.43-10.71-48.52-10.71-67.07,0l-495.96,286.41Z"/>
      </g>
    </g>
    <path class="st1" d="M684.77,1433.44v65.98c15.51,5.96,35.48,6.22,51.42.88v-66.16c-15.94,5.52-35.91,5.25-51.42-.7Z"/>
    <path class="st3" d="M711.66,1506.08c-9.62,0-19.2-1.62-27.59-4.85-3.27-1.31-5.67-2.46-7.83-3.73l-112.98-65.27c-9.78-5.71-15.17-13.37-15.17-21.58l-.18-65.86v-.12c0-1.08.87-1.95,1.95-1.95h0c1.07,0,1.95.87,1.95,1.95v.09c.04,6.72,4.7,13.15,13.14,18.13l113.08,65.27c2.28,1.35,4.82,2.54,7.38,3.44,15.03,5.78,34.69,6.05,50.13.7,3.34-1.01,6.5-2.39,9.46-4.13l496.01-286.53c8.57-4.84,13.48-11.54,13.48-18.38,0-1.08.87-1.95,1.95-1.95h0c1.07,0,1.95.87,1.95,1.95l.18,66.07c0,8.3-5.47,16.05-15.42,21.84l-495.92,286.36c-3.06,1.76-6.56,3.31-10.42,4.63-7.85,2.61-16.52,3.92-25.15,3.92ZM551.85,1356.44l.14,54.21c0,6.77,4.7,13.23,13.23,18.21l113,65.27c1.99,1.18,4.23,2.25,7.28,3.47,14.87,5.71,34.52,6.05,50.08.84,3.6-1.23,6.88-2.69,9.72-4.31l495.9-286.35c8.69-5.06,13.48-11.62,13.48-18.46l-.14-54.4c-2.63,3.81-6.56,7.26-11.57,10.1l-495.98,286.51c-3.21,1.89-6.66,3.4-10.23,4.47-16.45,5.69-36.66,5.41-52.68-.75-2.79-.99-5.5-2.25-8-3.74l-113.08-65.26c-4.84-2.85-8.6-6.17-11.15-9.81Z"/>
  </g>
  <g>
    <g>
      <g>
        <path class="st1" d="M637.31,862.27l1.49,447.36c.04,12.56,8.26,25.08,24.73,34.61,33.16,19.29,87.05,19.29,120.42.04l306.26-176.91c16.81-9.67,25.16-22.4,25.16-35.08l-1.53-447.32c0,12.73-8.39,25.38-25.11,35.04l-306.27,176.88c-33.37,19.29-87.3,19.24-120.42,0-16.47-9.58-24.69-22.1-24.73-34.62Z"/>
        <path class="st6" d="M723.7,1362.53c-22.53,0-45.04-4.97-62.13-14.91-17.15-9.93-26.62-23.41-26.67-37.97l-1.48-447.36h0l7.8-.02c.04,11.63,8.13,22.73,22.78,31.26,32.06,18.62,84.31,18.61,116.52-.01l306.26-176.86c14.94-8.63,23.16-19.88,23.16-31.66l7.8-.02v.02h0s1.54,447.3,1.54,447.3c0,14.77-9.63,28.43-27.11,38.48l-306.25,176.9c-17.21,9.9-39.73,14.85-62.22,14.85ZM641.29,884.28l1.41,425.34c.05,11.67,8.13,22.77,22.79,31.25,32,18.61,84.27,18.63,116.52.04l306.26-176.91c14.97-8.6,23.21-19.86,23.21-31.71l-1.46-425.37c-4.56,6.11-11.07,11.69-19.34,16.47l-306.27,176.88c-34.36,19.86-90.15,19.86-124.33-.01-8-4.65-14.32-10.06-18.79-15.98Z"/>
      </g>
      <g>
        <path class="st4" d="M662.43,827.14c-33.36,19.26-33.53,50.48-.39,69.74,33.14,19.26,87.05,19.28,120.4.02l306.29-176.88c33.36-19.26,33.5-50.5.36-69.76s-87.02-19.26-120.37,0l-306.29,176.88Z"/>
        <path class="st3" d="M722.18,913.24c-22.17,0-44.3-4.89-61.13-14.67-16.59-9.65-25.73-22.59-25.71-36.44.02-13.94,9.29-26.97,26.1-36.67h0l306.3-176.88c33.83-19.54,88.71-19.53,122.33,0,16.61,9.66,25.74,22.61,25.72,36.47-.02,13.94-9.28,26.96-26.09,36.66l-306.3,176.88c-16.9,9.77-39.07,14.65-61.22,14.65ZM663.4,828.83h0c-15.56,8.99-24.14,20.82-24.15,33.31-.02,12.4,8.42,24.14,23.77,33.06,32.56,18.93,85.69,18.93,118.44.02l306.3-176.88c15.55-8.98,24.12-20.81,24.14-33.3.02-12.41-8.43-24.16-23.79-33.09-32.53-18.91-85.65-18.91-118.41,0l-306.3,176.88Z"/>
      </g>
    </g>
    <g>
      <g>
        <path class="st3" d="M1051.88,708.15c-.56.46-1.2.83-1.85,1.2-19.54,11.21-51.04,11.3-70.49,0-.65-.37-1.2-.74-1.76-1.2-17.04-10.84-16.95-27.52-.09-38.36.65-.46,1.3-.93,2.04-1.3,19.54-11.3,51.13-11.4,70.58-.09.56.28,1.02.65,1.48.93,17.31,10.94,17.31,27.89.09,38.82Z"/>
        <path class="st3" d="M1014.69,719.69c-13.12,0-26.21-2.88-36.14-8.65-.74-.42-1.38-.85-2.03-1.39-8.59-5.44-13.44-12.82-13.45-20.63-.02-7.82,4.79-15.23,13.56-20.87.65-.47,1.39-.98,2.22-1.4,19.99-11.57,52.53-11.6,72.43-.04.3.15.69.4,1.04.64l.45.29c9.01,5.69,13.95,13.17,13.96,21.1.01,7.88-4.86,15.34-13.71,20.99-.62.5-1.32.91-2.03,1.32-10.04,5.76-23.19,8.64-36.3,8.64ZM1015.16,661.92c-12.46,0-24.94,2.76-34.46,8.27-.75.38-1.32.79-1.88,1.19-7.69,4.95-11.87,11.19-11.85,17.63.02,6.43,4.23,12.64,11.85,17.49.67.54,1.14.85,1.68,1.15,18.78,10.92,49.53,10.92,68.56,0,.55-.32,1.1-.62,1.57-1.01.06-.05.13-.1.21-.15,7.74-4.92,12.01-11.22,12-17.76-.01-6.54-4.3-12.85-12.09-17.77l-.59-.38c-.23-.15-.46-.31-.72-.45-9.46-5.47-21.86-8.21-34.28-8.21Z"/>
      </g>
      <g>
        <path class="st3" d="M775.3,867.88c-.74.56-1.48,1.02-2.32,1.48-19.64,11.3-51.22,11.3-70.67,0-.37-.19-.74-.46-1.11-.74-17.78-10.93-17.69-28.07-.09-39.1.56-.37,1.02-.74,1.57-1.02,19.45-11.31,51.04-11.31,70.49,0,.74.37,1.39.83,2.04,1.3,16.58,10.84,16.58,27.15.09,38.08Z"/>
        <path class="st3" d="M737.59,879.74c-13.16,0-26.28-2.9-36.26-8.69-.34-.17-.8-.49-1.25-.83-9.05-5.56-14.11-13.05-14.14-21.03-.04-8.01,4.99-15.58,14.13-21.32l.39-.27c.45-.32.88-.61,1.36-.85,19.85-11.55,52.34-11.55,72.33.06.72.36,1.46.87,2.19,1.4,8.5,5.56,13.23,12.88,13.26,20.56.02,7.68-4.65,15.03-13.17,20.7-.79.59-1.6,1.09-2.49,1.59-10.05,5.78-23.21,8.68-36.35,8.68ZM737.89,821.96c-12.4,0-24.79,2.74-34.23,8.23-.43.21-.69.4-.97.6l-.51.35c-8.01,5.02-12.38,11.41-12.35,18.02.02,6.58,4.42,12.9,12.38,17.79.45.32.71.53.96.66,18.97,11.01,49.81,11.01,68.83.05.78-.43,1.45-.85,2.12-1.35.03-.02.06-.05.09-.07,7.42-4.92,11.51-11.13,11.48-17.47-.02-6.33-4.13-12.49-11.56-17.36-.63-.45-1.19-.86-1.84-1.18-9.5-5.51-21.96-8.27-34.4-8.27Z"/>
      </g>
      <g>
        <path class="st1" d="M1051.88,708.15c-.56.46-1.2.83-1.85,1.2-19.54,11.21-51.04,11.3-70.49,0-.65-.37-1.2-.74-1.76-1.2l-.09-38.36-.37-140.63c-.09-28.26-8.15-49.01-22.04-56.98-14.17-7.97-36.4-4.45-61.13,9.82-64.84,37.52-119.58,132.12-119.3,206.7l.37,141.1.09,38.08c-.74.56-1.48,1.02-2.32,1.48-19.64,11.3-51.22,11.3-70.67,0-.37-.19-.74-.46-1.11-.74l-.09-39.1-.37-140.63c-.28-101.17,68.36-220.23,156.35-271.09,48.72-28.07,96.61-31.69,134.77-10.01,38.25,21.77,59.37,64.85,59.56,121.19l.37,140.36.08,38.81Z"/>
        <path class="st3" d="M737.59,879.74c-13.16,0-26.28-2.9-36.26-8.69-.34-.17-.8-.49-1.25-.83-.49-.37-.83-.98-.83-1.59l-.46-179.73c-.28-101.8,68.82-221.62,157.32-272.78,49.42-28.47,97.97-32.02,136.7-10.01,38.86,22.12,60.37,65.75,60.55,122.87l.46,179.18c0,.58-.25,1.13-.7,1.5-.64.54-1.39.97-2.13,1.4-20.09,11.52-52.58,11.52-72.44-.01-.74-.42-1.38-.85-2.03-1.39-.44-.37-.7-.92-.7-1.49l-.46-178.99c-.1-27.51-7.77-47.67-21.07-55.29-13.55-7.62-35.14-4.05-59.19,9.82-64.41,37.28-118.6,131.16-118.33,205l.46,179.18c0,.61-.29,1.19-.78,1.56-.81.61-1.63,1.12-2.54,1.63-10.02,5.76-23.18,8.66-36.32,8.66ZM703.15,867.6s.02.01.03.02c18.97,11.01,49.81,11.01,68.83.05.48-.26.91-.53,1.34-.8l-.46-178.17c-.27-75.07,54.8-170.5,120.28-208.39,25.26-14.58,48.26-18.15,63.05-9.83,14.55,8.34,22.95,29.72,23.05,58.67l.46,178.03c.24.17.5.32.78.48,18.78,10.92,49.53,10.92,68.56,0,.29-.17.59-.33.87-.51l-.46-178.18c-.18-55.66-20.99-98.1-58.58-119.49-37.49-21.3-84.66-17.75-132.83,10-87.41,50.52-155.65,168.86-155.37,269.4l.45,178.72Z"/>
      </g>
    </g>
    <g>
      <path class="st3" d="M782.46,896.89c-33.37,19.29-87.3,19.24-120.42,0-16.47-9.58-24.69-22.1-24.73-34.62l1.49,447.36c.04,12.56,8.26,25.08,24.73,34.61,33.16,19.29,87.05,19.29,120.42.04"/>
      <path class="st6" d="M723.7,1362.53c-22.53,0-45.04-4.97-62.13-14.91-17.15-9.93-26.62-23.41-26.67-37.97l-1.48-447.36h0l7.8-.02c.04,11.63,8.13,22.73,22.78,31.26,32.06,18.62,84.31,18.61,116.52-.01l3.9,6.75c-34.36,19.86-90.15,19.86-124.33-.01-8-4.64-14.32-10.05-18.79-15.97l1.41,425.34c.05,11.67,8.13,22.77,22.79,31.25,32,18.61,84.27,18.63,116.52.04l3.9,6.75c-17.21,9.91-39.73,14.86-62.22,14.86Z"/>
    </g>
    <path class="st3" d="M723.7,1360.61c-22.17,0-44.32-4.89-61.15-14.68-16.52-9.57-25.65-22.46-25.7-36.29l-1.48-447.36h0c0-1.08.87-1.95,1.94-1.96h.01c1.07,0,1.95.87,1.95,1.94.04,12.36,8.47,24.05,23.76,32.94,32.56,18.93,85.71,18.93,118.46,0l306.26-176.86c15.56-9,24.14-20.84,24.14-33.35,0-1.07.87-1.95,1.95-1.95h0c1.07,0,1.95.87,1.95,1.94l1.54,447.32c0,14.03-9.28,27.1-26.13,36.78l-306.26,176.9c-16.93,9.76-39.1,14.63-61.24,14.63ZM639.32,877.6l1.43,432.03c.05,12.39,8.48,24.09,23.76,32.94,32.55,18.93,85.69,18.94,118.47.04l306.26-176.9c15.59-8.97,24.18-20.83,24.18-33.4l-1.48-432.07c-4.2,8.06-11.75,15.42-22.24,21.48l-306.27,176.86c-33.83,19.56-88.73,19.55-122.38,0-10.19-5.93-17.57-13.12-21.73-20.98Z"/>
  </g>
  <g>
    <path class="st3" d="M931.67,944.1c-24.42,14.1-44.26,48.48-44.18,76.67.06,19.78,9.95,31.35,24.44,31.34l-20.8,114.44c-1.64,9.25,3.81,14.09,11.29,9.77l59.82-34.55c7.48-4.32,12.89-15.43,11.2-22.75l-21.38-90.09c14.45-16.7,24.24-39.64,24.19-59.42-.08-28.2-20.05-39.58-44.58-25.41Z"/>
    <path class="st3" d="M897.21,1179.86c-1.67,0-3.21-.46-4.52-1.37-3.21-2.25-4.48-6.72-3.49-12.27l20.41-112.24c-14.66-1.2-24.02-13.96-24.08-33.19-.08-28.79,20.19-63.94,45.16-78.36h0c12.53-7.24,24.42-8.35,33.48-3.14,9,5.18,13.98,15.92,14.02,30.24.06,19.5-9.12,42.38-24.01,59.94l21.15,89.12c1.91,8.27-3.87,20.12-12.11,24.89l-59.82,34.52c-2.13,1.24-4.25,1.86-6.19,1.86ZM911.93,1050.16c.58,0,1.13.26,1.49.7.37.44.53,1.03.43,1.6l-20.8,114.44c-.7,3.93.01,7.07,1.89,8.39,1.55,1.09,3.86.86,6.51-.66l59.82-34.54c6.69-3.87,11.78-14.09,10.27-20.63l-21.37-90.07c-.14-.61.02-1.25.42-1.72,14.69-16.98,23.77-39.26,23.71-58.14-.04-12.87-4.32-22.41-12.07-26.87-7.8-4.5-18.31-3.37-29.58,3.13h0c-23.9,13.8-43.29,47.44-43.21,74.98.05,18.13,8.67,29.4,22.49,29.4h0ZM931.67,944.1h.05-.05Z"/>
  </g>
  <g>
    <path class="st4" d="M1165.41,1410.51c-150.79,86.49-151.42,226.67-1.61,313.16,149.81,86.49,393.26,86.49,544.05,0s151.92-226.76,2.1-313.25c-149.81-86.49-393.75-86.4-544.54.09Z"/>
    <path class="st3" d="M1435.46,1790.32c-98.88,0-197.6-21.65-272.63-64.97-72.88-42.08-112.98-98.13-112.9-157.82.08-60.05,40.75-116.41,114.51-158.72,151.21-86.73,396.36-86.76,546.48-.09,72.72,41.99,112.74,97.95,112.65,157.58-.08,60.17-40.84,116.65-114.76,159.05-75.49,43.31-174.5,64.97-273.35,64.97ZM1166.38,1412.2h0c-72.5,41.58-112.46,96.75-112.55,155.34-.08,58.24,39.32,113.08,110.95,154.44,148.97,86,392.15,86,542.11,0,72.66-41.67,112.72-96.96,112.8-155.67.08-58.18-39.24-112.94-110.71-154.2-149.05-86.05-392.46-86-542.6.09Z"/>
  </g>
  <g>
    <path class="st2" d="M1463.37,1428c3.45,1.98,5.44,4.75,5.07,7.74-.72,5.5-9.02,9.58-18.53,9.22-61.44-2.66-121.52,10.16-164.75,35.12-26.64,15.38-45.6,34.61-54.82,55.64-2.3,5.3-11.75,8.51-21.01,7.15-3.08-.46-5.82-1.37-7.94-2.59-4.2-2.41-6.15-6-4.59-9.5,10.74-24.5,32.76-46.88,63.79-64.79,50.3-29.04,120.27-43.96,191.71-40.92,4.35.2,8.21,1.29,11.07,2.93Z"/>
    <path class="st2" d="M1175.83,1636.85c1.32.76,2.45,1.65,3.31,2.67,13.95,16.42,32.74,31.51,55.44,44.53,12.86,7.37,26.96,14.08,42.16,19.98.93.36,1.78.77,2.55,1.21,5.78,3.31,6.83,8.6,2.15,12.6-5.35,4.56-16.13,5.75-24.07,2.66-16.9-6.56-32.75-14.09-47.11-22.32-25.53-14.65-46.46-31.45-62.19-49.92-4.21-4.94-.64-10.92,7.89-13.3,6.83-1.93,14.8-1.02,19.87,1.89Z"/>
    <g>
      <path class="st2" d="M1440.79,1385.08c3.05,1.75,4.98,4.13,5.12,6.78.25,5.5-7.25,10.03-16.81,10.16-70.45,1.01-137.51,16.8-188.79,44.47-6.8,3.67-17.46,3.57-24.04-.2l-.44-.25c-6.5-4.03-6.18-10.31.76-14.06,57.51-31.01,132.58-48.73,211.48-49.84,4.95-.07,9.47,1.07,12.72,2.94Z"/>
      <path class="st2" d="M1188.63,1469.12c5.52,3.17,6.75,8.22,2.61,12.21-36.44,34.51-49.38,75.54-36.6,115.55,1.75,5.4-4.43,10.59-13.85,11.55-5.81.61-11.45-.56-15.34-2.79-2.39-1.37-4.2-3.17-4.79-5.22-14.39-44.82.19-90.81,40.92-129.43,4.95-4.74,15.6-6.21,23.76-3.34,1.23.42,2.32.91,3.29,1.47Z"/>
    </g>
    <g>
      <path class="st2" d="M1512.46,1596.47c56.06,32.15,87.04,74.88,87.3,120.33-.01,5.5-7.69,9.93-17.25,9.96-4.71-.03-9.08-1.11-12.21-2.91-3.14-1.8-5.04-4.31-5.15-7.04-.23-40.14-27.57-77.89-77.05-106.27l-63.22-36.26c-6.8-3.9-6.84-10.19-.08-14.09,6.72-3.88,17.64-3.88,24.44.02l63.22,36.26Z"/>
      <path class="st2" d="M1220.31,1573.62c2.68,1.54,4.51,3.58,4.99,5.9,5.48,27.7,26.54,52.65,60.83,72.32l65.38,37.5c12.99,7.45,19.91,16.98,19.88,27.47l.24,18.88c.03,5.52-7.69,9.98-17.25,9.96-4.8.02-9.17-1.11-12.3-2.91-3.09-1.77-5.04-4.26-5.06-7.04l-.19-18.85c.01-5.19-3.31-9.73-9.72-13.4l-65.38-37.5c-39.32-22.55-64.5-52.45-70.8-84.15-1.09-5.47,5.75-10.44,15.26-11.05,5.4-.35,10.52.8,14.12,2.87Z"/>
      <path class="st2" d="M1458.78,1627.41c44.18,25.34,67.21,57.24,64.84,89.83-.53,7.93-.84,14.77-.98,20.96-.06,5.52-7.83,9.91-17.38,9.83-4.76-.05-8.99-1.17-12.08-2.94-3.18-1.82-5.13-4.36-5.06-7.15.05-6.33.36-13.43.89-21.56,1.96-26.96-17.39-53.57-54.59-74.9l-32.47-18.62c-6.76-3.88-6.88-10.16-.12-14.06s17.72-3.88,24.48,0l32.47,18.61Z"/>
      <path class="st2" d="M1405.15,1658.37c27.17,15.58,42.22,36.34,42.47,58.41l.06,25.59c.08,5.5-7.65,9.96-17.2,9.93-4.8.03-9.08-1.11-12.21-2.91-3.18-1.82-5.18-4.28-5.1-7.02l-.15-25.54c-.18-16.77-11.63-32.54-32.26-44.37l-55.13-31.62c-6.85-3.93-6.84-10.19-.08-14.09s17.64-3.93,24.48,0l55.12,31.62Z"/>
    </g>
    <path class="st2" d="M1685.69,1582.94c1.01.58,1.9,1.23,2.66,1.97,17.4,16.65,31.46,34.51,41.91,52.98,2.94,5.22-2.05,10.85-11.16,12.54-6.38,1.14-13.08.08-17.54-2.48-1.86-1.06-3.4-2.41-4.29-3.98-9.52-17.03-22.51-33.47-38.59-48.85-4.91-4.74-2.26-10.84,5.91-13.68,6.96-2.38,15.62-1.64,21.1,1.5Z"/>
    <path class="st2" d="M1586.63,1578.34c.37.21.73.44,1.07.67,46.06,31.22,75.34,69.07,84.81,109.51,1.26,5.42-5.4,10.44-14.86,11.17-5.55.41-10.84-.76-14.5-2.86-2.61-1.49-4.42-3.45-4.96-5.73-8.53-36.67-35.15-70.97-76.83-99.28-6.19-4.21-5.26-10.49,1.99-14.01,6.84-3.37,17-3.08,23.28.53Z"/>
    <g>
      <path class="st2" d="M1663.83,1436.33c14.36,8.23,27.49,17.33,38.95,27.04,5.4,4.56,3.41,10.74-4.46,13.81-7.04,2.76-16.24,2.14-22.03-1.18-.75-.43-1.45-.91-2.07-1.43-10.22-8.69-21.89-16.8-34.75-24.17-36.8-21.11-82.72-36.08-132.75-43.35-3.17-.46-5.86-1.39-8.03-2.64-4.15-2.38-6.11-5.93-4.55-9.48,2.26-5.32,11.66-8.56,20.92-7.2,56.11,8.13,107.5,24.93,148.77,48.6Z"/>
      <path class="st2" d="M1673.37,1503.52c32.29,18.52,60.24,39.25,83,61.65,4.87,4.76,2.13,10.82-6.13,13.61-6.86,2.33-15.4,1.57-20.88-1.57-1.02-.58-2.03-1.27-2.74-2.03-21.34-20.88-47.43-40.29-77.61-57.59l-65.38-37.5c-17.49-10.03-37.62-18.14-59.85-24.07-1.86-.5-3.49-1.17-4.87-1.96-5.02-2.88-6.64-7.37-3.48-11.27,4.02-4.97,14.27-7.12,23-4.79,25.8,6.97,49.24,16.37,69.56,28.02l65.38,37.5Z"/>
      <path class="st2" d="M1528.77,1544.04c6.85,3.93,6.8,10.21.08,14.09-6.8,3.93-17.64,3.93-24.48,0l-28.05-16.09c-11.18-6.41-25.95-9.88-41.67-9.91-15.68,0-30.45,3.5-41.51,9.88-15.54,8.97-20.97,22.07-14.29,34.13,2.89,5.24-2.18,10.82-11.33,12.49-6.29,1.14-12.99.08-17.41-2.46-1.9-1.09-3.45-2.48-4.3-4.08-10.54-19.18-1.81-39.93,22.81-54.15,17.56-10.14,41-15.74,65.96-15.71,24.92,0,48.47,5.57,66.14,15.71l28.05,16.1Z"/>
    </g>
    <path class="st2" d="M1380.24,1480.1c1.35.77,2.5,1.69,3.39,2.73,4.12,4.94.59,10.9-7.98,13.25-13.54,3.8-25.84,8.82-36.51,14.98-36.21,20.9-48.54,52.48-31.6,80.42,3.2,5.22-1.61,10.9-10.63,12.7-6.42,1.27-13.3.25-17.89-2.38-1.81-1.04-3.18-2.33-4.07-3.8-21.33-35.12-5.84-74.77,39.63-101.03,13.39-7.73,28.9-14.04,45.91-18.78,6.85-1.91,14.67-1.01,19.75,1.91Z"/>
    <path class="st2" d="M1619.73,1534.49c5.92,3.4,11.66,6.94,17.28,10.46,6.36,4.1,5.78,10.39-1.24,14.04-6.85,3.52-17.23,3.44-23.65-.25-.29-.16-.56-.34-.83-.51-5.08-3.27-10.47-6.51-15.95-9.65l-65.38-37.5c-11.09-6.36-23.98-11.53-38.09-15.33-13.98-3.78-29.1-6.18-44.65-7.02-4.23-.2-7.93-1.27-10.72-2.86-3.49-2-5.49-4.92-4.98-7.96.85-5.47,9.24-9.55,18.75-9,39.25,2.1,76.2,12.09,104.08,28.07l65.38,37.51Z"/>
  </g>
  <path class="st0" d="M1681.67,1851.95c-6.62,3.82-9.97,8.85-9.95,13.88-.08,5.03,3.22,10.06,9.8,13.88l-1.39.81,1.39-.81c6.63,3.85,15.35,5.75,23.98,5.75s17.38-1.9,24-5.72l250.45-144.6c13.24-7.7,13.31-20.12.11-27.79-6.58-3.82-15.25-5.75-23.88-5.75-8.68.03-17.38,1.9-24.05,5.75l-250.46,144.6Z"/>
</svg>